<svg width="25" height="25" viewBox="0 0 25 25" fill="none" xmlns="http://www.w3.org/2000/svg">
<g clip-path="url(#clip0)">
<path d="M12.5 7.07134e-06C10.0277 7.07134e-06 7.61099 0.733119 5.55538 2.10664C3.49976 3.48015 1.89761 5.43239 0.951511 7.71646C0.00541601 10.0005 -0.242126 12.5139 0.24019 14.9386C0.722505 17.3634 1.91301 19.5907 3.66117 21.3388C5.40933 23.087 7.63661 24.2775 10.0614 24.7598C12.4861 25.2421 14.9995 24.9946 17.2835 24.0485C19.5676 23.1024 21.5199 21.5002 22.8934 19.4446C24.2669 17.389 25 14.9723 25 12.5C25.0018 10.858 24.6796 9.23176 24.0521 7.7144C23.4245 6.19704 22.5038 4.81836 21.3427 3.65728C20.1817 2.4962 18.803 1.57552 17.2856 0.947954C15.7683 0.320389 14.142 -0.00174036 12.5 7.07134e-06ZM20.7031 6.05469C22.0796 7.8246 22.8592 9.98552 22.9297 12.2266C20.5222 11.7595 18.054 11.6935 15.625 12.0313C15.3516 11.4063 15.0781 10.8203 14.8047 10.2734C17.0817 9.36233 19.1051 7.9151 20.7031 6.05469ZM12.5 2.07032C14.9803 2.06178 17.3802 2.9496 19.2578 4.57032C17.8037 6.29735 15.9356 7.62781 13.8281 8.43751C12.7023 6.32409 11.4365 4.2883 10.0391 2.34376C10.8451 2.15219 11.6716 2.06036 12.5 2.07032ZM8.00782 3.08594C9.42283 4.99375 10.7145 6.99001 11.875 9.06251C8.94532 9.88282 5.66407 10.0781 2.34376 10.0781C2.70736 8.56432 3.40463 7.15088 4.38459 5.94113C5.36456 4.73137 6.60246 3.75588 8.00782 3.08594ZM2.07032 12.5V12.1484H2.10938C5.82032 12.1484 9.53126 11.9141 12.8516 10.9375C13.0859 11.4453 13.3594 11.9531 13.5938 12.5C9.21876 13.7891 6.52344 16.6406 4.64844 19.375C2.98659 17.4701 2.07075 15.0279 2.07032 12.5ZM12.5 22.9297C10.2127 22.9235 7.99017 22.169 6.17188 20.7813C7.92969 18.125 10.3906 15.5078 14.375 14.4141C15.3571 16.9079 16.0644 19.5013 16.4844 22.1484C15.2198 22.6657 13.8663 22.931 12.5 22.9297ZM18.3984 21.0938C17.9653 18.6694 17.3116 16.2897 16.4453 13.9844C18.5687 13.7348 20.7183 13.8271 22.8125 14.2578C22.5659 15.6327 22.0488 16.945 21.2911 18.1185C20.5333 19.292 19.5501 20.3033 18.3984 21.0938Z" fill="#D82A2A"/>
</g>
<defs>
<clipPath id="clip0">
<rect width="25" height="25" fill="white"/>
</clipPath>
</defs>
</svg>
