<svg width="25" height="25" viewBox="0 0 25 25" fill="none" xmlns="http://www.w3.org/2000/svg">
<path d="M17.2352 0.78125H7.76172C5.91291 0.781763 4.13977 1.51549 2.83118 2.82152C1.52259 4.12754 0.785387 5.89924 0.78125 7.74805V17.2012C0.78549 19.0499 1.52274 20.8215 2.83132 22.1274C4.13989 23.4334 5.91298 24.1671 7.76172 24.1676H17.2352C19.0845 24.1679 20.8585 23.4345 22.1677 22.1284C23.477 20.8223 24.2146 19.0501 24.2188 17.2008V7.74766C24.2145 5.89838 23.4768 4.1263 22.1676 2.82027C20.8583 1.51424 19.0844 0.780935 17.2352 0.78125ZM21.8594 17.2008C21.8587 17.8074 21.7386 18.4079 21.5058 18.9681C21.2731 19.5282 20.9323 20.0371 20.5029 20.4655C20.0735 20.894 19.5639 21.2337 19.0032 21.4652C18.4425 21.6967 17.8418 21.8155 17.2352 21.8148H7.76172C7.15512 21.8155 6.55434 21.6967 5.99366 21.4652C5.43299 21.2337 4.9234 20.894 4.494 20.4655C4.06461 20.0371 3.7238 19.5282 3.49105 18.9681C3.2583 18.4079 3.13817 17.8074 3.1375 17.2008V7.74766C3.13817 7.14106 3.2583 6.54054 3.49105 5.98037C3.7238 5.42021 4.06461 4.91137 4.494 4.48292C4.9234 4.05446 5.43299 3.71478 5.99366 3.48326C6.55434 3.25174 7.15512 3.13293 7.76172 3.13359H17.2352C17.8418 3.13293 18.4426 3.25176 19.0033 3.4833C19.564 3.71484 20.0736 4.05456 20.503 4.48306C20.9324 4.91155 21.2732 5.42043 21.5059 5.98064C21.7387 6.54085 21.8588 7.14142 21.8594 7.74805V17.2008Z" fill="#D82A2A"/>
<path d="M12.5001 6.42578C11.3043 6.4281 10.1361 6.7848 9.14297 7.45082C8.14985 8.11684 7.37643 9.06228 6.92044 10.1677C6.46444 11.2731 6.34633 12.4889 6.58103 13.6614C6.81573 14.8339 7.39272 15.9105 8.23907 16.7552C9.08542 17.6 10.1632 18.1749 11.3361 18.4073C12.5091 18.6397 13.7246 18.5193 14.8292 18.0611C15.9337 17.603 16.8776 16.8277 17.5417 15.8333C18.2058 14.8389 18.5603 13.67 18.5603 12.4742C18.5566 10.8692 17.9166 9.33104 16.7806 8.19719C15.6445 7.06333 14.1052 6.4263 12.5001 6.42578ZM12.5001 16.1719C11.7695 16.1703 11.0558 15.9521 10.4491 15.5451C9.84244 15.138 9.37003 14.5602 9.09157 13.8848C8.81311 13.2093 8.74109 12.4665 8.88462 11.7502C9.02814 11.0338 9.38077 10.3761 9.89795 9.86003C10.4151 9.344 11.0736 8.99283 11.7903 8.85089C12.507 8.70896 13.2497 8.78262 13.9245 9.06258C14.5993 9.34254 15.176 9.81623 15.5817 10.4238C15.9875 11.0314 16.204 11.7456 16.204 12.4762C16.2029 13.4574 15.812 14.398 15.1174 15.0911C14.4228 15.7841 13.4813 16.1729 12.5001 16.1719ZM20.0247 6.4711C20.0253 6.75855 19.9407 7.03973 19.7814 7.27904C19.6221 7.51835 19.3955 7.70504 19.1301 7.81547C18.8647 7.92591 18.5725 7.95512 18.2905 7.89942C18.0085 7.84372 17.7493 7.70561 17.5458 7.50256C17.3424 7.29952 17.2037 7.04067 17.1474 6.75879C17.0911 6.4769 17.1197 6.18464 17.2295 5.91901C17.3394 5.65337 17.5256 5.4263 17.7646 5.26653C18.0035 5.10677 18.2845 5.02149 18.572 5.02149C18.7626 5.02123 18.9513 5.05853 19.1275 5.13125C19.3037 5.20397 19.4638 5.31069 19.5987 5.4453C19.7336 5.57992 19.8407 5.7398 19.9138 5.91581C19.9869 6.09182 20.0246 6.28051 20.0247 6.4711Z" fill="#D82A2A"/>
</svg>
